<svg xmlns="http://www.w3.org/2000/svg" xmlns:xlink="http://www.w3.org/1999/xlink" width="840" height="581.04"><rect width="840" height="581.04" rx="5" ry="5" class="a"/><svg y="0%" x="0%"><circle cx="20" cy="20" r="6" fill="#ff5f58"/><circle cx="40" cy="20" r="6" fill="#ffbd2e"/><circle cx="60" cy="20" r="6" fill="#18c132"/></svg><svg height="521.04" viewBox="0 0 80 52.104" width="800" x="15" xmlns="http://www.w3.org/2000/svg" xmlns:xlink="http://www.w3.org/1999/xlink" y="50"><style>@keyframes p{0%{transform:translateX(0)}.05%{transform:translateX(-80px)}12.91%{transform:translateX(-160px)}13.9%{transform:translateX(-240px)}15.13%{transform:translateX(-320px)}15.54%{transform:translateX(-400px)}16.08%{transform:translateX(-480px)}16.49%{transform:translateX(-560px)}16.73%{transform:translateX(-640px)}17.21%{transform:translateX(-720px)}18.18%{transform:translateX(-800px)}18.67%{transform:translateX(-880px)}19.15%{transform:translateX(-960px)}22.9%{transform:translateX(-1040px)}23.12%{transform:translateX(-1120px)}23.13%{transform:translateX(-1200px)}30.63%{transform:translateX(-1280px)}31.28%{transform:translateX(-1360px)}31.67%{transform:translateX(-1440px)}32.05%{transform:translateX(-1520px)}33.37%{transform:translateX(-1600px)}33.55%{transform:translateX(-1760px)}33.57%{transform:translateX(-1840px)}40.1%{transform:translateX(-1920px)}40.71%{transform:translateX(-2000px)}41.27%{transform:translateX(-2080px)}41.89%{transform:translateX(-2160px)}42.15%{transform:translateX(-2240px)}42.62%{transform:translateX(-2320px)}43.88%{transform:translateX(-2400px)}44.06%{transform:translateX(-2480px)}44.14%{transform:translateX(-2560px)}45.39%{transform:translateX(-2640px)}49.48%{transform:translateX(-2720px)}50.21%{transform:translateX(-2800px)}50.65%{transform:translateX(-2880px)}51.16%{transform:translateX(-2960px)}52.45%{transform:translateX(-3040px)}53.35%{transform:translateX(-3120px)}54.06%{transform:translateX(-3200px)}54.5%{transform:translateX(-3280px)}55.64%{transform:translateX(-3360px)}56.26%{transform:translateX(-3440px)}57.81%{transform:translateX(-3520px)}58.39%{transform:translateX(-3600px)}59.3%{transform:translateX(-3680px)}61.02%{transform:translateX(-3760px)}62.95%{transform:translateX(-3840px)}63.75%{transform:translateX(-3920px)}68.53%{transform:translateX(-4000px)}68.74%{transform:translateX(-4080px)}77.59%{transform:translateX(-4160px)}79.7%{transform:translateX(-4240px)}80.22%{transform:translateX(-4320px)}81.04%{transform:translateX(-4400px)}81.52%{transform:translateX(-4480px)}82.03%{transform:translateX(-4560px)}82.85%{transform:translateX(-4640px)}83.12%{transform:translateX(-4880px)}83.15%{transform:translateX(-4960px)}90.93%{transform:translateX(-5040px)}91.6%{transform:translateX(-5120px)}92.67%{transform:translateX(-5200px)}93.42%{transform:translateX(-5280px)}94.22%{transform:translateX(-5360px)}94.26%{transform:translateX(-5440px)}to{transform:translateX(-5520px)}}.a{fill:#282d35}.f{fill:#b9c0cb}.g{font-weight:700}.g,.h{fill:#dbab79}.i{fill:#a8cc8c}.j,.k{fill:#73bef3;font-weight:700}.k{fill:#a8cc8c}.l{fill:#e88388}.m{fill:#b9bfca}</style><g font-size="1.67" font-family="Monaco,Consolas,Menlo,'Bitstream Vera Sans Mono','Powerline Symbols',monospace"><defs><symbol id="1"><text y="1.67" class="f">bash-3.2$</text></symbol><symbol id="2"><text y="1.67" class="f">bash-3.2$</text><text x="10.02" y="1.67" class="f">./wallet713</text></symbol><symbol id="3"><text y="1.67" class="g">Welcome</text><text x="8.016" y="1.67" class="g">to</text><text x="11.022" y="1.67" class="g">wallet713</text></symbol><symbol id="4"><text y="1.67" class="h">Your</text><text x="5.01" y="1.67" class="h">713.grinbox</text><text x="17.034" y="1.67" class="h">address</text><text x="24.048" y="1.67" class="f">:</text><text x="26.052" y="1.67" class="i">xd6TLqd4XWoBwaMt6m9QS41sSi4LBzfJ6GypD2k78pqs5FtRTt9L</text></symbol><symbol id="5"><text y="1.67" class="j">Use</text><text x="4.008" y="1.67" class="j">`listen`</text><text x="13.026" y="1.67" class="j">to</text><text x="16.032" y="1.67" class="j">connect</text><text x="24.048" y="1.67" class="j">to</text><text x="27.054" y="1.67" class="j">grinbox</text><text x="35.07" y="1.67" class="j">or</text><text x="38.076" y="1.67" class="j">`help`</text><text x="45.09" y="1.67" class="j">to</text><text x="48.096" y="1.67" class="j">see</text><text x="52.104" y="1.67" class="j">available</text><text x="62.124" y="1.67" class="j">commands</text></symbol><symbol id="6"><text y="1.67" class="i">wallet713&gt;</text></symbol><symbol id="7"><text y="1.67" class="i">wallet713&gt;</text><text x="11.022" y="1.67" class="f">i</text></symbol><symbol id="8"><text y="1.67" class="i">wallet713&gt;</text><text x="11.022" y="1.67" class="f">in</text></symbol><symbol id="9"><text y="1.67" class="i">wallet713&gt;</text><text x="11.022" y="1.67" class="f">inf</text></symbol><symbol id="10"><text y="1.67" class="i">wallet713&gt;</text><text x="11.022" y="1.67" class="f">info</text></symbol><symbol id="11"><text y="1.67" class="f">____</text><text x="5.01" y="1.67" class="f">Wallet</text><text x="12.024" y="1.67" class="f">Summary</text><text x="20.04" y="1.67" class="f">Info</text><text x="25.05" y="1.67" class="f">-</text><text x="27.054" y="1.67" class="f">Account</text><text x="35.07" y="1.67" class="f">&apos;default&apos;</text><text x="45.09" y="1.67" class="f">as</text><text x="48.096" y="1.67" class="f">of</text><text x="51.102" y="1.67" class="f">height</text><text x="58.116" y="1.67" class="f">66472</text><text x="64.128" y="1.67" class="f">____</text></symbol><symbol id="12"><text x="1.002" y="1.67" class="k">Total</text><text x="34.068" y="1.67" class="f">|</text><text x="36.072" y="1.67" class="i">100.000000000</text></symbol><symbol id="13"><text x="1.002" y="1.67" class="g">Awaiting</text><text x="10.02" y="1.67" class="g">Confirmation</text><text x="23.046" y="1.67" class="g">(&lt;</text><text x="26.052" y="1.67" class="g">10)</text><text x="34.068" y="1.67" class="f">|</text><text x="36.072" y="1.67" class="h">0.000000000</text></symbol><symbol id="14"><text x="1.002" y="1.67" class="l">Locked</text><text x="8.016" y="1.67" class="l">by</text><text x="11.022" y="1.67" class="l">previous</text><text x="20.04" y="1.67" class="l">transaction</text><text x="34.068" y="1.67" class="f">|</text><text x="36.072" y="1.67" class="l">0.000000000</text></symbol><symbol id="15"><text x="1.002" y="1.67" class="m">--------------------------------</text><text x="34.068" y="1.67" class="f">|</text><text x="36.072" y="1.67" class="m">-------------</text></symbol><symbol id="16"><text x="1.002" y="1.67" class="k">Currently</text><text x="11.022" y="1.67" class="k">Spendable</text><text x="34.068" y="1.67" class="f">|</text><text x="36.072" y="1.67" class="i">100.000000000</text></symbol><symbol id="17"><text y="1.67" class="i">wallet713&gt;</text><text x="11.022" y="1.67" class="f">listen</text></symbol><symbol id="18"><text y="1.67" class="f">connected</text><text x="10.02" y="1.67" class="f">to</text><text x="13.026" y="1.67" class="f">grinbox</text></symbol><symbol id="19"><text y="1.67" class="f">subscribing</text><text x="12.024" y="1.67" class="f">to</text><text x="15.03" y="1.67" class="f">[</text><text x="16.032" y="1.67" class="i">xd6TLqd4XWoBwaMt6m9QS41sSi4LBzfJ6GypD2k78pqs5FtRTt9L</text><text x="68.136" y="1.67" class="f">]</text></symbol><symbol id="20"><text y="1.67" class="i">wallet713&gt;</text><text x="11.022" y="1.67" class="f">send</text></symbol><symbol id="21"><text y="1.67" class="i">wallet713&gt;</text><text x="11.022" y="1.67" class="f">send</text><text x="16.032" y="1.67" class="f">10</text></symbol><symbol id="22"><text y="1.67" class="i">wallet713&gt;</text><text x="11.022" y="1.67" class="f">send</text><text x="16.032" y="1.67" class="f">10</text><text x="19.038" y="1.67" class="f">--to</text></symbol><symbol id="23"><text y="1.67" class="i">wallet713&gt;</text><text x="11.022" y="1.67" class="f">send</text><text x="16.032" y="1.67" class="f">10</text><text x="19.038" y="1.67" class="f">--to</text><text x="24.048" y="1.67" class="f">xd8q4wgBBwdg75vD2J1VswdT4x7bJE6P5o1hcoht99ebc6C1wxxq</text></symbol><symbol id="24"><text y="1.67" class="f">slate</text><text x="6.012" y="1.67" class="f">[</text><text x="7.014" y="1.67" class="i">1364ca85-dcff-4dfa-b83f-ccf0aa609a65</text><text x="43.086" y="1.67" class="f">]</text><text x="45.09" y="1.67" class="f">for</text><text x="49.098" y="1.67" class="f">[</text><text x="50.1" y="1.67" class="i">10.000000000</text><text x="62.124" y="1.67" class="f">]</text><text x="64.128" y="1.67" class="f">grins</text><text x="70.14" y="1.67" class="f">sent</text><text x="75.15" y="1.67" class="f">succe</text></symbol><symbol id="25"><text y="1.67" class="f">ssfully</text><text x="8.016" y="1.67" class="f">to</text><text x="11.022" y="1.67" class="f">[</text><text x="12.024" y="1.67" class="i">xd8q4wgBBwdg75vD2J1VswdT4x7bJE6P5o1hcoht99ebc6C1wxxq</text><text x="64.128" y="1.67" class="f">]</text></symbol><symbol id="26"><text y="1.67" class="f">slate</text><text x="6.012" y="1.67" class="f">[</text><text x="7.014" y="1.67" class="i">1364ca85-dcff-4dfa-b83f-ccf0aa609a65</text><text x="43.086" y="1.67" class="f">]</text><text x="45.09" y="1.67" class="f">received</text><text x="54.108" y="1.67" class="f">back</text><text x="59.118" y="1.67" class="f">from</text><text x="64.128" y="1.67" class="f">[</text><text x="65.13" y="1.67" class="i">xd8q4wgBBwdg75v</text></symbol><symbol id="27"><text y="1.67" class="i">D2J1VswdT4x7bJE6P5o1hcoht99ebc6C1wxxq</text><text x="37.074" y="1.67" class="f">]</text><text x="39.078" y="1.67" class="f">for</text><text x="43.086" y="1.67" class="f">[</text><text x="44.088" y="1.67" class="i">10.000000000</text><text x="56.112" y="1.67" class="f">]</text><text x="58.116" y="1.67" class="f">grins</text></symbol><symbol id="28"><text y="1.67" class="f">slate</text><text x="6.012" y="1.67" class="f">[</text><text x="7.014" y="1.67" class="i">1364ca85-dcff-4dfa-b83f-ccf0aa609a65</text><text x="43.086" y="1.67" class="f">]</text><text x="45.09" y="1.67" class="f">finalized</text><text x="55.11" y="1.67" class="f">successfully</text></symbol><symbol id="29"><text y="1.67" class="i">wallet713&gt;</text><text x="11.022" y="1.67" class="f">e</text></symbol><symbol id="30"><text x="1.002" y="1.67" class="k">Total</text><text x="34.068" y="1.67" class="f">|</text><text x="36.072" y="1.67" class="i">89.992000000</text></symbol><symbol id="31"><text x="1.002" y="1.67" class="g">Awaiting</text><text x="10.02" y="1.67" class="g">Confirmation</text><text x="23.046" y="1.67" class="g">(&lt;</text><text x="26.052" y="1.67" class="g">10)</text><text x="34.068" y="1.67" class="f">|</text><text x="36.072" y="1.67" class="h">89.992000000</text></symbol><symbol id="32"><text x="1.002" y="1.67" class="l">Locked</text><text x="8.016" y="1.67" class="l">by</text><text x="11.022" y="1.67" class="l">previous</text><text x="20.04" y="1.67" class="l">transaction</text><text x="34.068" y="1.67" class="f">|</text><text x="36.072" y="1.67" class="l">100.000000000</text></symbol><symbol id="33"><text x="1.002" y="1.67" class="k">Currently</text><text x="11.022" y="1.67" class="k">Spendable</text><text x="34.068" y="1.67" class="f">|</text><text x="36.072" y="1.67" class="i">0.000000000</text></symbol><symbol id="34"><text y="1.67" class="i">wallet713&gt;</text><text x="11.022" y="1.67" class="f">exit</text></symbol><symbol id="a"><path fill="transparent" d="M0 0h80v24H0z"/></symbol><symbol id="b"><path fill="#6f7683" d="M0 0h1.102v2.171H0z"/></symbol></defs><path class="a" d="M0 0h80v52.104H0z"/><g style="animation-duration:28.629109s;animation-iteration-count:infinite;animation-name:p;animation-timing-function:steps(1,end)"><svg width="5600"><svg><use xlink:href="#a"/><use xlink:href="#b" x="-.004"/></svg><svg x="80"><use xlink:href="#a"/><use xlink:href="#b" x="9.996"/><use xlink:href="#1"/></svg><svg x="160"><use xlink:href="#a"/><use xlink:href="#b" x="10.996"/><text y="1.67" class="f">bash-3.2$</text><text x="10.02" y="1.67" class="f">.</text></svg><svg x="240"><use xlink:href="#a"/><use xlink:href="#b" x="11.996"/><text y="1.67" class="f">bash-3.2$</text><text x="10.02" y="1.67" class="f">./</text></svg><svg x="320"><use xlink:href="#a"/><use xlink:href="#b" x="12.996"/><text y="1.67" class="f">bash-3.2$</text><text x="10.02" y="1.67" class="f">./w</text></svg><svg x="400"><use xlink:href="#a"/><use xlink:href="#b" x="13.996"/><text y="1.67" class="f">bash-3.2$</text><text x="10.02" y="1.67" class="f">./wa</text></svg><svg x="480"><use xlink:href="#a"/><use xlink:href="#b" x="14.996"/><text y="1.67" class="f">bash-3.2$</text><text x="10.02" y="1.67" class="f">./wal</text></svg><svg x="560"><use xlink:href="#a"/><use xlink:href="#b" x="15.996"/><text y="1.67" class="f">bash-3.2$</text><text x="10.02" y="1.67" class="f">./wall</text></svg><svg x="640"><use xlink:href="#a"/><use xlink:href="#b" x="16.996"/><text y="1.67" class="f">bash-3.2$</text><text x="10.02" y="1.67" class="f">./walle</text></svg><svg x="720"><use xlink:href="#a"/><use xlink:href="#b" x="17.996"/><text y="1.67" class="f">bash-3.2$</text><text x="10.02" y="1.67" class="f">./wallet</text></svg><svg x="800"><use xlink:href="#a"/><use xlink:href="#b" x="18.996"/><text y="1.67" class="f">bash-3.2$</text><text x="10.02" y="1.67" class="f">./wallet7</text></svg><svg x="880"><use xlink:href="#a"/><use xlink:href="#b" x="19.996"/><text y="1.67" class="f">bash-3.2$</text><text x="10.02" y="1.67" class="f">./wallet71</text></svg><svg x="960"><use xlink:href="#a"/><use xlink:href="#b" x="20.996"/><use xlink:href="#2"/></svg><svg x="1040"><use xlink:href="#a"/><use xlink:href="#b" x="-.004" y="2.146"/><use xlink:href="#2"/></svg><svg x="1120"><use xlink:href="#a"/><use xlink:href="#b" x="-.004" y="15.172"/><use xlink:href="#2"/><use xlink:href="#3" y="4.342"/><use xlink:href="#4" y="8.684"/><use xlink:href="#5" y="10.855"/></svg><svg x="1200"><use xlink:href="#a"/><use xlink:href="#b" x="10.996" y="15.172"/><use xlink:href="#2"/><use xlink:href="#3" y="4.342"/><use xlink:href="#4" y="8.684"/><use xlink:href="#5" y="10.855"/><use xlink:href="#6" y="15.197"/></svg><svg x="1280"><use xlink:href="#a"/><use xlink:href="#b" x="11.996" y="15.172"/><use xlink:href="#2"/><use xlink:href="#3" y="4.342"/><use xlink:href="#4" y="8.684"/><use xlink:href="#5" y="10.855"/><use xlink:href="#7" y="15.197"/></svg><svg x="1360"><use xlink:href="#a"/><use xlink:href="#b" x="12.996" y="15.172"/><use xlink:href="#2"/><use xlink:href="#3" y="4.342"/><use xlink:href="#4" y="8.684"/><use xlink:href="#5" y="10.855"/><use xlink:href="#8" y="15.197"/></svg><svg x="1440"><use xlink:href="#a"/><use xlink:href="#b" x="13.996" y="15.172"/><use xlink:href="#2"/><use xlink:href="#3" y="4.342"/><use xlink:href="#4" y="8.684"/><use xlink:href="#5" y="10.855"/><use xlink:href="#9" y="15.197"/></svg><svg x="1520"><use xlink:href="#a"/><use xlink:href="#b" x="14.996" y="15.172"/><use xlink:href="#2"/><use xlink:href="#3" y="4.342"/><use xlink:href="#4" y="8.684"/><use xlink:href="#5" y="10.855"/><use xlink:href="#10" y="15.197"/></svg><svg x="1600"><use xlink:href="#a"/><use xlink:href="#b" x="-.004" y="17.343"/><use xlink:href="#2"/><use xlink:href="#3" y="4.342"/><use xlink:href="#4" y="8.684"/><use xlink:href="#5" y="10.855"/><use xlink:href="#10" y="15.197"/></svg><svg x="1680"><use xlink:href="#a"/><use xlink:href="#b" x="-.004" y="23.856"/><use xlink:href="#2"/><use xlink:href="#3" y="4.342"/><use xlink:href="#4" y="8.684"/><use xlink:href="#5" y="10.855"/><use xlink:href="#10" y="15.197"/><use xlink:href="#11" y="19.539"/></svg><svg x="1760"><use xlink:href="#a"/><use xlink:href="#b" x="-.004" y="36.882"/><use xlink:href="#2"/><use xlink:href="#3" y="4.342"/><use xlink:href="#4" y="8.684"/><use xlink:href="#5" y="10.855"/><use xlink:href="#10" y="15.197"/><use xlink:href="#11" y="19.539"/><use xlink:href="#12" y="23.881"/><use xlink:href="#13" y="26.052"/><use xlink:href="#14" y="28.223"/><use xlink:href="#15" y="30.394"/><use xlink:href="#16" y="32.565"/></svg><svg x="1840"><use xlink:href="#a"/><use xlink:href="#b" x="10.996" y="36.882"/><use xlink:href="#2"/><use xlink:href="#3" y="4.342"/><use xlink:href="#4" y="8.684"/><use xlink:href="#5" y="10.855"/><use xlink:href="#10" y="15.197"/><use xlink:href="#11" y="19.539"/><use xlink:href="#12" y="23.881"/><use xlink:href="#13" y="26.052"/><use xlink:href="#14" y="28.223"/><use xlink:href="#15" y="30.394"/><use xlink:href="#16" y="32.565"/><use xlink:href="#6" y="36.907"/></svg><svg x="1920"><use xlink:href="#a"/><use xlink:href="#b" x="11.996" y="36.882"/><use xlink:href="#2"/><use xlink:href="#3" y="4.342"/><use xlink:href="#4" y="8.684"/><use xlink:href="#5" y="10.855"/><use xlink:href="#10" y="15.197"/><use xlink:href="#11" y="19.539"/><use xlink:href="#12" y="23.881"/><use xlink:href="#13" y="26.052"/><use xlink:href="#14" y="28.223"/><use xlink:href="#15" y="30.394"/><use xlink:href="#16" y="32.565"/><text y="38.577" class="i">wallet713&gt;</text><text x="11.022" y="38.577" class="f">l</text></svg><svg x="2000"><use xlink:href="#a"/><use xlink:href="#b" x="12.996" y="36.882"/><use xlink:href="#2"/><use xlink:href="#3" y="4.342"/><use xlink:href="#4" y="8.684"/><use xlink:href="#5" y="10.855"/><use xlink:href="#10" y="15.197"/><use xlink:href="#11" y="19.539"/><use xlink:href="#12" y="23.881"/><use xlink:href="#13" y="26.052"/><use xlink:href="#14" y="28.223"/><use xlink:href="#15" y="30.394"/><use xlink:href="#16" y="32.565"/><text y="38.577" class="i">wallet713&gt;</text><text x="11.022" y="38.577" class="f">li</text></svg><svg x="2080"><use xlink:href="#a"/><use xlink:href="#b" x="13.996" y="36.882"/><use xlink:href="#2"/><use xlink:href="#3" y="4.342"/><use xlink:href="#4" y="8.684"/><use xlink:href="#5" y="10.855"/><use xlink:href="#10" y="15.197"/><use xlink:href="#11" y="19.539"/><use xlink:href="#12" y="23.881"/><use xlink:href="#13" y="26.052"/><use xlink:href="#14" y="28.223"/><use xlink:href="#15" y="30.394"/><use xlink:href="#16" y="32.565"/><text y="38.577" class="i">wallet713&gt;</text><text x="11.022" y="38.577" class="f">lis</text></svg><svg x="2160"><use xlink:href="#a"/><use xlink:href="#b" x="14.996" y="36.882"/><use xlink:href="#2"/><use xlink:href="#3" y="4.342"/><use xlink:href="#4" y="8.684"/><use xlink:href="#5" y="10.855"/><use xlink:href="#10" y="15.197"/><use xlink:href="#11" y="19.539"/><use xlink:href="#12" y="23.881"/><use xlink:href="#13" y="26.052"/><use xlink:href="#14" y="28.223"/><use xlink:href="#15" y="30.394"/><use xlink:href="#16" y="32.565"/><text y="38.577" class="i">wallet713&gt;</text><text x="11.022" y="38.577" class="f">list</text></svg><svg x="2240"><use xlink:href="#a"/><use xlink:href="#b" x="15.996" y="36.882"/><use xlink:href="#2"/><use xlink:href="#3" y="4.342"/><use xlink:href="#4" y="8.684"/><use xlink:href="#5" y="10.855"/><use xlink:href="#10" y="15.197"/><use xlink:href="#11" y="19.539"/><use xlink:href="#12" y="23.881"/><use xlink:href="#13" y="26.052"/><use xlink:href="#14" y="28.223"/><use xlink:href="#15" y="30.394"/><use xlink:href="#16" y="32.565"/><text y="38.577" class="i">wallet713&gt;</text><text x="11.022" y="38.577" class="f">liste</text></svg><svg x="2320"><use xlink:href="#a"/><use xlink:href="#b" x="16.996" y="36.882"/><use xlink:href="#2"/><use xlink:href="#3" y="4.342"/><use xlink:href="#4" y="8.684"/><use xlink:href="#5" y="10.855"/><use xlink:href="#10" y="15.197"/><use xlink:href="#11" y="19.539"/><use xlink:href="#12" y="23.881"/><use xlink:href="#13" y="26.052"/><use xlink:href="#14" y="28.223"/><use xlink:href="#15" y="30.394"/><use xlink:href="#16" y="32.565"/><use xlink:href="#17" y="36.907"/></svg><svg x="2400"><use xlink:href="#a"/><use xlink:href="#b" x="-.004" y="39.053"/><use xlink:href="#2"/><use xlink:href="#3" y="4.342"/><use xlink:href="#4" y="8.684"/><use xlink:href="#5" y="10.855"/><use xlink:href="#10" y="15.197"/><use xlink:href="#11" y="19.539"/><use xlink:href="#12" y="23.881"/><use xlink:href="#13" y="26.052"/><use xlink:href="#14" y="28.223"/><use xlink:href="#15" y="30.394"/><use xlink:href="#16" y="32.565"/><use xlink:href="#17" y="36.907"/></svg><svg x="2480"><use xlink:href="#a"/><use xlink:href="#b" x="10.996" y="39.053"/><use xlink:href="#2"/><use xlink:href="#3" y="4.342"/><use xlink:href="#4" y="8.684"/><use xlink:href="#5" y="10.855"/><use xlink:href="#10" y="15.197"/><use xlink:href="#11" y="19.539"/><use xlink:href="#12" y="23.881"/><use xlink:href="#13" y="26.052"/><use xlink:href="#14" y="28.223"/><use xlink:href="#15" y="30.394"/><use xlink:href="#16" y="32.565"/><use xlink:href="#17" y="36.907"/><use xlink:href="#6" y="39.078"/></svg><svg x="2560"><use xlink:href="#a"/><use xlink:href="#b" x="10.996" y="41.224"/><use xlink:href="#2"/><use xlink:href="#3" y="4.342"/><use xlink:href="#4" y="8.684"/><use xlink:href="#5" y="10.855"/><use xlink:href="#10" y="15.197"/><use xlink:href="#11" y="19.539"/><use xlink:href="#12" y="23.881"/><use xlink:href="#13" y="26.052"/><use xlink:href="#14" y="28.223"/><use xlink:href="#15" y="30.394"/><use xlink:href="#16" y="32.565"/><use xlink:href="#17" y="36.907"/><use xlink:href="#18" y="39.078"/><use xlink:href="#6" y="41.249"/></svg><svg x="2640"><use xlink:href="#a"/><use xlink:href="#b" x="10.996" y="43.395"/><use xlink:href="#2"/><use xlink:href="#3" y="4.342"/><use xlink:href="#4" y="8.684"/><use xlink:href="#5" y="10.855"/><use xlink:href="#10" y="15.197"/><use xlink:href="#11" y="19.539"/><use xlink:href="#12" y="23.881"/><use xlink:href="#13" y="26.052"/><use xlink:href="#14" y="28.223"/><use xlink:href="#15" y="30.394"/><use xlink:href="#16" y="32.565"/><use xlink:href="#17" y="36.907"/><use xlink:href="#18" y="39.078"/><use xlink:href="#19" y="41.249"/><use xlink:href="#6" y="43.42"/></svg><svg x="2720"><use xlink:href="#a"/><use xlink:href="#b" x="11.996" y="43.395"/><use xlink:href="#2"/><use xlink:href="#3" y="4.342"/><use xlink:href="#4" y="8.684"/><use xlink:href="#5" y="10.855"/><use xlink:href="#10" y="15.197"/><use xlink:href="#11" y="19.539"/><use xlink:href="#12" y="23.881"/><use xlink:href="#13" y="26.052"/><use xlink:href="#14" y="28.223"/><use xlink:href="#15" y="30.394"/><use xlink:href="#16" y="32.565"/><use xlink:href="#17" y="36.907"/><use xlink:href="#18" y="39.078"/><use xlink:href="#19" y="41.249"/><text y="45.09" class="i">wallet713&gt;</text><text x="11.022" y="45.09" class="f">s</text></svg><svg x="2800"><use xlink:href="#a"/><use xlink:href="#b" x="12.996" y="43.395"/><use xlink:href="#2"/><use xlink:href="#3" y="4.342"/><use xlink:href="#4" y="8.684"/><use xlink:href="#5" y="10.855"/><use xlink:href="#10" y="15.197"/><use xlink:href="#11" y="19.539"/><use xlink:href="#12" y="23.881"/><use xlink:href="#13" y="26.052"/><use xlink:href="#14" y="28.223"/><use xlink:href="#15" y="30.394"/><use xlink:href="#16" y="32.565"/><use xlink:href="#17" y="36.907"/><use xlink:href="#18" y="39.078"/><use xlink:href="#19" y="41.249"/><text y="45.09" class="i">wallet713&gt;</text><text x="11.022" y="45.09" class="f">se</text></svg><svg x="2880"><use xlink:href="#a"/><use xlink:href="#b" x="13.996" y="43.395"/><use xlink:href="#2"/><use xlink:href="#3" y="4.342"/><use xlink:href="#4" y="8.684"/><use xlink:href="#5" y="10.855"/><use xlink:href="#10" y="15.197"/><use xlink:href="#11" y="19.539"/><use xlink:href="#12" y="23.881"/><use xlink:href="#13" y="26.052"/><use xlink:href="#14" y="28.223"/><use xlink:href="#15" y="30.394"/><use xlink:href="#16" y="32.565"/><use xlink:href="#17" y="36.907"/><use xlink:href="#18" y="39.078"/><use xlink:href="#19" y="41.249"/><text y="45.09" class="i">wallet713&gt;</text><text x="11.022" y="45.09" class="f">sen</text></svg><svg x="2960"><use xlink:href="#a"/><use xlink:href="#b" x="14.996" y="43.395"/><use xlink:href="#2"/><use xlink:href="#3" y="4.342"/><use xlink:href="#4" y="8.684"/><use xlink:href="#5" y="10.855"/><use xlink:href="#10" y="15.197"/><use xlink:href="#11" y="19.539"/><use xlink:href="#12" y="23.881"/><use xlink:href="#13" y="26.052"/><use xlink:href="#14" y="28.223"/><use xlink:href="#15" y="30.394"/><use xlink:href="#16" y="32.565"/><use xlink:href="#17" y="36.907"/><use xlink:href="#18" y="39.078"/><use xlink:href="#19" y="41.249"/><use xlink:href="#20" y="43.42"/></svg><svg x="3040"><use xlink:href="#a"/><use xlink:href="#b" x="15.996" y="43.395"/><use xlink:href="#2"/><use xlink:href="#3" y="4.342"/><use xlink:href="#4" y="8.684"/><use xlink:href="#5" y="10.855"/><use xlink:href="#10" y="15.197"/><use xlink:href="#11" y="19.539"/><use xlink:href="#12" y="23.881"/><use xlink:href="#13" y="26.052"/><use xlink:href="#14" y="28.223"/><use xlink:href="#15" y="30.394"/><use xlink:href="#16" y="32.565"/><use xlink:href="#17" y="36.907"/><use xlink:href="#18" y="39.078"/><use xlink:href="#19" y="41.249"/><use xlink:href="#20" y="43.42"/></svg><svg x="3120"><use xlink:href="#a"/><use xlink:href="#b" x="16.996" y="43.395"/><use xlink:href="#2"/><use xlink:href="#3" y="4.342"/><use xlink:href="#4" y="8.684"/><use xlink:href="#5" y="10.855"/><use xlink:href="#10" y="15.197"/><use xlink:href="#11" y="19.539"/><use xlink:href="#12" y="23.881"/><use xlink:href="#13" y="26.052"/><use xlink:href="#14" y="28.223"/><use xlink:href="#15" y="30.394"/><use xlink:href="#16" y="32.565"/><use xlink:href="#17" y="36.907"/><use xlink:href="#18" y="39.078"/><use xlink:href="#19" y="41.249"/><text y="45.09" class="i">wallet713&gt;</text><text x="11.022" y="45.09" class="f">send</text><text x="16.032" y="45.09" class="f">1</text></svg><svg x="3200"><use xlink:href="#a"/><use xlink:href="#b" x="17.996" y="43.395"/><use xlink:href="#2"/><use xlink:href="#3" y="4.342"/><use xlink:href="#4" y="8.684"/><use xlink:href="#5" y="10.855"/><use xlink:href="#10" y="15.197"/><use xlink:href="#11" y="19.539"/><use xlink:href="#12" y="23.881"/><use xlink:href="#13" y="26.052"/><use xlink:href="#14" y="28.223"/><use xlink:href="#15" y="30.394"/><use xlink:href="#16" y="32.565"/><use xlink:href="#17" y="36.907"/><use xlink:href="#18" y="39.078"/><use xlink:href="#19" y="41.249"/><use xlink:href="#21" y="43.42"/></svg><svg x="3280"><use xlink:href="#a"/><use xlink:href="#b" x="18.996" y="43.395"/><use xlink:href="#2"/><use xlink:href="#3" y="4.342"/><use xlink:href="#4" y="8.684"/><use xlink:href="#5" y="10.855"/><use xlink:href="#10" y="15.197"/><use xlink:href="#11" y="19.539"/><use xlink:href="#12" y="23.881"/><use xlink:href="#13" y="26.052"/><use xlink:href="#14" y="28.223"/><use xlink:href="#15" y="30.394"/><use xlink:href="#16" y="32.565"/><use xlink:href="#17" y="36.907"/><use xlink:href="#18" y="39.078"/><use xlink:href="#19" y="41.249"/><use xlink:href="#21" y="43.42"/></svg><svg x="3360"><use xlink:href="#a"/><use xlink:href="#b" x="19.996" y="43.395"/><use xlink:href="#2"/><use xlink:href="#3" y="4.342"/><use xlink:href="#4" y="8.684"/><use xlink:href="#5" y="10.855"/><use xlink:href="#10" y="15.197"/><use xlink:href="#11" y="19.539"/><use xlink:href="#12" y="23.881"/><use xlink:href="#13" y="26.052"/><use xlink:href="#14" y="28.223"/><use xlink:href="#15" y="30.394"/><use xlink:href="#16" y="32.565"/><use xlink:href="#17" y="36.907"/><use xlink:href="#18" y="39.078"/><use xlink:href="#19" y="41.249"/><text y="45.09" class="i">wallet713&gt;</text><text x="11.022" y="45.09" class="f">send</text><text x="16.032" y="45.09" class="f">10</text><text x="19.038" y="45.09" class="f">-</text></svg><svg x="3440"><use xlink:href="#a"/><use xlink:href="#b" x="20.996" y="43.395"/><use xlink:href="#2"/><use xlink:href="#3" y="4.342"/><use xlink:href="#4" y="8.684"/><use xlink:href="#5" y="10.855"/><use xlink:href="#10" y="15.197"/><use xlink:href="#11" y="19.539"/><use xlink:href="#12" y="23.881"/><use xlink:href="#13" y="26.052"/><use xlink:href="#14" y="28.223"/><use xlink:href="#15" y="30.394"/><use xlink:href="#16" y="32.565"/><use xlink:href="#17" y="36.907"/><use xlink:href="#18" y="39.078"/><use xlink:href="#19" y="41.249"/><text y="45.09" class="i">wallet713&gt;</text><text x="11.022" y="45.09" class="f">send</text><text x="16.032" y="45.09" class="f">10</text><text x="19.038" y="45.09" class="f">--</text></svg><svg x="3520"><use xlink:href="#a"/><use xlink:href="#b" x="21.996" y="43.395"/><use xlink:href="#2"/><use xlink:href="#3" y="4.342"/><use xlink:href="#4" y="8.684"/><use xlink:href="#5" y="10.855"/><use xlink:href="#10" y="15.197"/><use xlink:href="#11" y="19.539"/><use xlink:href="#12" y="23.881"/><use xlink:href="#13" y="26.052"/><use xlink:href="#14" y="28.223"/><use xlink:href="#15" y="30.394"/><use xlink:href="#16" y="32.565"/><use xlink:href="#17" y="36.907"/><use xlink:href="#18" y="39.078"/><use xlink:href="#19" y="41.249"/><text y="45.09" class="i">wallet713&gt;</text><text x="11.022" y="45.09" class="f">send</text><text x="16.032" y="45.09" class="f">10</text><text x="19.038" y="45.09" class="f">--t</text></svg><svg x="3600"><use xlink:href="#a"/><use xlink:href="#b" x="22.996" y="43.395"/><use xlink:href="#2"/><use xlink:href="#3" y="4.342"/><use xlink:href="#4" y="8.684"/><use xlink:href="#5" y="10.855"/><use xlink:href="#10" y="15.197"/><use xlink:href="#11" y="19.539"/><use xlink:href="#12" y="23.881"/><use xlink:href="#13" y="26.052"/><use xlink:href="#14" y="28.223"/><use xlink:href="#15" y="30.394"/><use xlink:href="#16" y="32.565"/><use xlink:href="#17" y="36.907"/><use xlink:href="#18" y="39.078"/><use xlink:href="#19" y="41.249"/><use xlink:href="#22" y="43.42"/></svg><svg x="3680"><use xlink:href="#a"/><use xlink:href="#b" x="23.996" y="43.395"/><use xlink:href="#2"/><use xlink:href="#3" y="4.342"/><use xlink:href="#4" y="8.684"/><use xlink:href="#5" y="10.855"/><use xlink:href="#10" y="15.197"/><use xlink:href="#11" y="19.539"/><use xlink:href="#12" y="23.881"/><use xlink:href="#13" y="26.052"/><use xlink:href="#14" y="28.223"/><use xlink:href="#15" y="30.394"/><use xlink:href="#16" y="32.565"/><use xlink:href="#17" y="36.907"/><use xlink:href="#18" y="39.078"/><use xlink:href="#19" y="41.249"/><use xlink:href="#22" y="43.42"/></svg><svg x="3760"><use xlink:href="#a"/><use xlink:href="#b" x="75.996" y="43.395"/><use xlink:href="#2"/><use xlink:href="#3" y="4.342"/><use xlink:href="#4" y="8.684"/><use xlink:href="#5" y="10.855"/><use xlink:href="#10" y="15.197"/><use xlink:href="#11" y="19.539"/><use xlink:href="#12" y="23.881"/><use xlink:href="#13" y="26.052"/><use xlink:href="#14" y="28.223"/><use xlink:href="#15" y="30.394"/><use xlink:href="#16" y="32.565"/><use xlink:href="#17" y="36.907"/><use xlink:href="#18" y="39.078"/><use xlink:href="#19" y="41.249"/><use xlink:href="#23" y="43.42"/></svg><svg x="3840"><use xlink:href="#a"/><use xlink:href="#b" x="-.004" y="45.566"/><use xlink:href="#2"/><use xlink:href="#3" y="4.342"/><use xlink:href="#4" y="8.684"/><use xlink:href="#5" y="10.855"/><use xlink:href="#10" y="15.197"/><use xlink:href="#11" y="19.539"/><use xlink:href="#12" y="23.881"/><use xlink:href="#13" y="26.052"/><use xlink:href="#14" y="28.223"/><use xlink:href="#15" y="30.394"/><use xlink:href="#16" y="32.565"/><use xlink:href="#17" y="36.907"/><use xlink:href="#18" y="39.078"/><use xlink:href="#19" y="41.249"/><use xlink:href="#23" y="43.42"/></svg><svg x="3920"><use xlink:href="#a"/><use xlink:href="#b" x="10.996" y="49.908"/><use xlink:href="#2"/><use xlink:href="#3" y="4.342"/><use xlink:href="#4" y="8.684"/><use xlink:href="#5" y="10.855"/><use xlink:href="#10" y="15.197"/><use xlink:href="#11" y="19.539"/><use xlink:href="#12" y="23.881"/><use xlink:href="#13" y="26.052"/><use xlink:href="#14" y="28.223"/><use xlink:href="#15" y="30.394"/><use xlink:href="#16" y="32.565"/><use xlink:href="#17" y="36.907"/><use xlink:href="#18" y="39.078"/><use xlink:href="#19" y="41.249"/><use xlink:href="#23" y="43.42"/><use xlink:href="#24" y="45.591"/><use xlink:href="#25" y="47.762"/><use xlink:href="#6" y="49.933"/></svg><svg x="4000"><use xlink:href="#a"/><use xlink:href="#b" x="10.996" y="49.908"/><use xlink:href="#3"/><use xlink:href="#4" y="4.342"/><use xlink:href="#5" y="6.513"/><use xlink:href="#10" y="10.855"/><use xlink:href="#11" y="15.197"/><use xlink:href="#12" y="19.539"/><use xlink:href="#13" y="21.71"/><use xlink:href="#14" y="23.881"/><use xlink:href="#15" y="26.052"/><use xlink:href="#16" y="28.223"/><use xlink:href="#17" y="32.565"/><use xlink:href="#18" y="34.736"/><use xlink:href="#19" y="36.907"/><use xlink:href="#23" y="39.078"/><use xlink:href="#24" y="41.249"/><use xlink:href="#25" y="43.42"/><use xlink:href="#26" y="45.591"/><use xlink:href="#27" y="47.762"/><use xlink:href="#6" y="49.933"/></svg><svg x="4080"><use xlink:href="#a"/><use xlink:href="#b" x="10.996" y="49.908"/><use xlink:href="#4" y="2.171"/><use xlink:href="#5" y="4.342"/><use xlink:href="#10" y="8.684"/><use xlink:href="#11" y="13.026"/><use xlink:href="#12" y="17.368"/><use xlink:href="#13" y="19.539"/><use xlink:href="#14" y="21.71"/><use xlink:href="#15" y="23.881"/><use xlink:href="#16" y="26.052"/><use xlink:href="#17" y="30.394"/><use xlink:href="#18" y="32.565"/><use xlink:href="#19" y="34.736"/><use xlink:href="#23" y="36.907"/><use xlink:href="#24" y="39.078"/><use xlink:href="#25" y="41.249"/><use xlink:href="#26" y="43.42"/><use xlink:href="#27" y="45.591"/><use xlink:href="#28" y="47.762"/><use xlink:href="#6" y="49.933"/></svg><svg x="4160"><use xlink:href="#a"/><use xlink:href="#b" x="11.996" y="49.908"/><use xlink:href="#4" y="2.171"/><use xlink:href="#5" y="4.342"/><use xlink:href="#10" y="8.684"/><use xlink:href="#11" y="13.026"/><use xlink:href="#12" y="17.368"/><use xlink:href="#13" y="19.539"/><use xlink:href="#14" y="21.71"/><use xlink:href="#15" y="23.881"/><use xlink:href="#16" y="26.052"/><use xlink:href="#17" y="30.394"/><use xlink:href="#18" y="32.565"/><use xlink:href="#19" y="34.736"/><use xlink:href="#23" y="36.907"/><use xlink:href="#24" y="39.078"/><use xlink:href="#25" y="41.249"/><use xlink:href="#26" y="43.42"/><use xlink:href="#27" y="45.591"/><use xlink:href="#28" y="47.762"/><use xlink:href="#29" y="49.933"/></svg><svg x="4240"><use xlink:href="#a"/><use xlink:href="#b" x="10.996" y="49.908"/><use xlink:href="#4" y="2.171"/><use xlink:href="#5" y="4.342"/><use xlink:href="#10" y="8.684"/><use xlink:href="#11" y="13.026"/><use xlink:href="#12" y="17.368"/><use xlink:href="#13" y="19.539"/><use xlink:href="#14" y="21.71"/><use xlink:href="#15" y="23.881"/><use xlink:href="#16" y="26.052"/><use xlink:href="#17" y="30.394"/><use xlink:href="#18" y="32.565"/><use xlink:href="#19" y="34.736"/><use xlink:href="#23" y="36.907"/><use xlink:href="#24" y="39.078"/><use xlink:href="#25" y="41.249"/><use xlink:href="#26" y="43.42"/><use xlink:href="#27" y="45.591"/><use xlink:href="#28" y="47.762"/><use xlink:href="#6" y="49.933"/></svg><svg x="4320"><use xlink:href="#a"/><use xlink:href="#b" x="11.996" y="49.908"/><use xlink:href="#4" y="2.171"/><use xlink:href="#5" y="4.342"/><use xlink:href="#10" y="8.684"/><use xlink:href="#11" y="13.026"/><use xlink:href="#12" y="17.368"/><use xlink:href="#13" y="19.539"/><use xlink:href="#14" y="21.71"/><use xlink:href="#15" y="23.881"/><use xlink:href="#16" y="26.052"/><use xlink:href="#17" y="30.394"/><use xlink:href="#18" y="32.565"/><use xlink:href="#19" y="34.736"/><use xlink:href="#23" y="36.907"/><use xlink:href="#24" y="39.078"/><use xlink:href="#25" y="41.249"/><use xlink:href="#26" y="43.42"/><use xlink:href="#27" y="45.591"/><use xlink:href="#28" y="47.762"/><use xlink:href="#7" y="49.933"/></svg><svg x="4400"><use xlink:href="#a"/><use xlink:href="#b" x="12.996" y="49.908"/><use xlink:href="#4" y="2.171"/><use xlink:href="#5" y="4.342"/><use xlink:href="#10" y="8.684"/><use xlink:href="#11" y="13.026"/><use xlink:href="#12" y="17.368"/><use xlink:href="#13" y="19.539"/><use xlink:href="#14" y="21.71"/><use xlink:href="#15" y="23.881"/><use xlink:href="#16" y="26.052"/><use xlink:href="#17" y="30.394"/><use xlink:href="#18" y="32.565"/><use xlink:href="#19" y="34.736"/><use xlink:href="#23" y="36.907"/><use xlink:href="#24" y="39.078"/><use xlink:href="#25" y="41.249"/><use xlink:href="#26" y="43.42"/><use xlink:href="#27" y="45.591"/><use xlink:href="#28" y="47.762"/><use xlink:href="#8" y="49.933"/></svg><svg x="4480"><use xlink:href="#a"/><use xlink:href="#b" x="13.996" y="49.908"/><use xlink:href="#4" y="2.171"/><use xlink:href="#5" y="4.342"/><use xlink:href="#10" y="8.684"/><use xlink:href="#11" y="13.026"/><use xlink:href="#12" y="17.368"/><use xlink:href="#13" y="19.539"/><use xlink:href="#14" y="21.71"/><use xlink:href="#15" y="23.881"/><use xlink:href="#16" y="26.052"/><use xlink:href="#17" y="30.394"/><use xlink:href="#18" y="32.565"/><use xlink:href="#19" y="34.736"/><use xlink:href="#23" y="36.907"/><use xlink:href="#24" y="39.078"/><use xlink:href="#25" y="41.249"/><use xlink:href="#26" y="43.42"/><use xlink:href="#27" y="45.591"/><use xlink:href="#28" y="47.762"/><use xlink:href="#9" y="49.933"/></svg><svg x="4560"><use xlink:href="#a"/><use xlink:href="#b" x="14.996" y="49.908"/><use xlink:href="#4" y="2.171"/><use xlink:href="#5" y="4.342"/><use xlink:href="#10" y="8.684"/><use xlink:href="#11" y="13.026"/><use xlink:href="#12" y="17.368"/><use xlink:href="#13" y="19.539"/><use xlink:href="#14" y="21.71"/><use xlink:href="#15" y="23.881"/><use xlink:href="#16" y="26.052"/><use xlink:href="#17" y="30.394"/><use xlink:href="#18" y="32.565"/><use xlink:href="#19" y="34.736"/><use xlink:href="#23" y="36.907"/><use xlink:href="#24" y="39.078"/><use xlink:href="#25" y="41.249"/><use xlink:href="#26" y="43.42"/><use xlink:href="#27" y="45.591"/><use xlink:href="#28" y="47.762"/><use xlink:href="#10" y="49.933"/></svg><svg x="4640"><use xlink:href="#a"/><use xlink:href="#b" x="-.004" y="49.908"/><use xlink:href="#4"/><use xlink:href="#5" y="2.171"/><use xlink:href="#10" y="6.513"/><use xlink:href="#11" y="10.855"/><use xlink:href="#12" y="15.197"/><use xlink:href="#13" y="17.368"/><use xlink:href="#14" y="19.539"/><use xlink:href="#15" y="21.71"/><use xlink:href="#16" y="23.881"/><use xlink:href="#17" y="28.223"/><use xlink:href="#18" y="30.394"/><use xlink:href="#19" y="32.565"/><use xlink:href="#23" y="34.736"/><use xlink:href="#24" y="36.907"/><use xlink:href="#25" y="39.078"/><use xlink:href="#26" y="41.249"/><use xlink:href="#27" y="43.42"/><use xlink:href="#28" y="45.591"/><use xlink:href="#10" y="47.762"/></svg><svg x="4720"><use xlink:href="#a"/><use xlink:href="#b" x="-.004" y="49.908"/><use xlink:href="#10"/><use xlink:href="#11" y="4.342"/><use xlink:href="#12" y="8.684"/><use xlink:href="#13" y="10.855"/><use xlink:href="#14" y="13.026"/><use xlink:href="#15" y="15.197"/><use xlink:href="#16" y="17.368"/><use xlink:href="#17" y="21.71"/><use xlink:href="#18" y="23.881"/><use xlink:href="#19" y="26.052"/><use xlink:href="#23" y="28.223"/><use xlink:href="#24" y="30.394"/><use xlink:href="#25" y="32.565"/><use xlink:href="#26" y="34.736"/><use xlink:href="#27" y="36.907"/><use xlink:href="#28" y="39.078"/><use xlink:href="#10" y="41.249"/><use xlink:href="#11" y="45.591"/></svg><svg x="4800"><use xlink:href="#a"/><use xlink:href="#b" x="-.004" y="49.908"/><use xlink:href="#11" y="2.171"/><use xlink:href="#12" y="6.513"/><use xlink:href="#13" y="8.684"/><use xlink:href="#14" y="10.855"/><use xlink:href="#15" y="13.026"/><use xlink:href="#16" y="15.197"/><use xlink:href="#17" y="19.539"/><use xlink:href="#18" y="21.71"/><use xlink:href="#19" y="23.881"/><use xlink:href="#23" y="26.052"/><use xlink:href="#24" y="28.223"/><use xlink:href="#25" y="30.394"/><use xlink:href="#26" y="32.565"/><use xlink:href="#27" y="34.736"/><use xlink:href="#28" y="36.907"/><use xlink:href="#10" y="39.078"/><use xlink:href="#11" y="43.42"/><use xlink:href="#30" y="47.762"/></svg><svg x="4880"><use xlink:href="#a"/><use xlink:href="#b" x="-.004" y="49.908"/><use xlink:href="#14"/><use xlink:href="#15" y="2.171"/><use xlink:href="#16" y="4.342"/><use xlink:href="#17" y="8.684"/><use xlink:href="#18" y="10.855"/><use xlink:href="#19" y="13.026"/><use xlink:href="#23" y="15.197"/><use xlink:href="#24" y="17.368"/><use xlink:href="#25" y="19.539"/><use xlink:href="#26" y="21.71"/><use xlink:href="#27" y="23.881"/><use xlink:href="#28" y="26.052"/><use xlink:href="#10" y="28.223"/><use xlink:href="#11" y="32.565"/><use xlink:href="#30" y="36.907"/><use xlink:href="#31" y="39.078"/><use xlink:href="#32" y="41.249"/><use xlink:href="#15" y="43.42"/><use xlink:href="#33" y="45.591"/></svg><svg x="4960"><use xlink:href="#a"/><use xlink:href="#b" x="10.996" y="49.908"/><use xlink:href="#14"/><use xlink:href="#15" y="2.171"/><use xlink:href="#16" y="4.342"/><use xlink:href="#17" y="8.684"/><use xlink:href="#18" y="10.855"/><use xlink:href="#19" y="13.026"/><use xlink:href="#23" y="15.197"/><use xlink:href="#24" y="17.368"/><use xlink:href="#25" y="19.539"/><use xlink:href="#26" y="21.71"/><use xlink:href="#27" y="23.881"/><use xlink:href="#28" y="26.052"/><use xlink:href="#10" y="28.223"/><use xlink:href="#11" y="32.565"/><use xlink:href="#30" y="36.907"/><use xlink:href="#31" y="39.078"/><use xlink:href="#32" y="41.249"/><use xlink:href="#15" y="43.42"/><use xlink:href="#33" y="45.591"/><use xlink:href="#6" y="49.933"/></svg><svg x="5040"><use xlink:href="#a"/><use xlink:href="#b" x="11.996" y="49.908"/><use xlink:href="#14"/><use xlink:href="#15" y="2.171"/><use xlink:href="#16" y="4.342"/><use xlink:href="#17" y="8.684"/><use xlink:href="#18" y="10.855"/><use xlink:href="#19" y="13.026"/><use xlink:href="#23" y="15.197"/><use xlink:href="#24" y="17.368"/><use xlink:href="#25" y="19.539"/><use xlink:href="#26" y="21.71"/><use xlink:href="#27" y="23.881"/><use xlink:href="#28" y="26.052"/><use xlink:href="#10" y="28.223"/><use xlink:href="#11" y="32.565"/><use xlink:href="#30" y="36.907"/><use xlink:href="#31" y="39.078"/><use xlink:href="#32" y="41.249"/><use xlink:href="#15" y="43.42"/><use xlink:href="#33" y="45.591"/><use xlink:href="#29" y="49.933"/></svg><svg x="5120"><use xlink:href="#a"/><use xlink:href="#b" x="12.996" y="49.908"/><use xlink:href="#14"/><use xlink:href="#15" y="2.171"/><use xlink:href="#16" y="4.342"/><use xlink:href="#17" y="8.684"/><use xlink:href="#18" y="10.855"/><use xlink:href="#19" y="13.026"/><use xlink:href="#23" y="15.197"/><use xlink:href="#24" y="17.368"/><use xlink:href="#25" y="19.539"/><use xlink:href="#26" y="21.71"/><use xlink:href="#27" y="23.881"/><use xlink:href="#28" y="26.052"/><use xlink:href="#10" y="28.223"/><use xlink:href="#11" y="32.565"/><use xlink:href="#30" y="36.907"/><use xlink:href="#31" y="39.078"/><use xlink:href="#32" y="41.249"/><use xlink:href="#15" y="43.42"/><use xlink:href="#33" y="45.591"/><text y="51.603" class="i">wallet713&gt;</text><text x="11.022" y="51.603" class="f">ex</text></svg><svg x="5200"><use xlink:href="#a"/><use xlink:href="#b" x="13.996" y="49.908"/><use xlink:href="#14"/><use xlink:href="#15" y="2.171"/><use xlink:href="#16" y="4.342"/><use xlink:href="#17" y="8.684"/><use xlink:href="#18" y="10.855"/><use xlink:href="#19" y="13.026"/><use xlink:href="#23" y="15.197"/><use xlink:href="#24" y="17.368"/><use xlink:href="#25" y="19.539"/><use xlink:href="#26" y="21.71"/><use xlink:href="#27" y="23.881"/><use xlink:href="#28" y="26.052"/><use xlink:href="#10" y="28.223"/><use xlink:href="#11" y="32.565"/><use xlink:href="#30" y="36.907"/><use xlink:href="#31" y="39.078"/><use xlink:href="#32" y="41.249"/><use xlink:href="#15" y="43.42"/><use xlink:href="#33" y="45.591"/><text y="51.603" class="i">wallet713&gt;</text><text x="11.022" y="51.603" class="f">exi</text></svg><svg x="5280"><use xlink:href="#a"/><use xlink:href="#b" x="14.996" y="49.908"/><use xlink:href="#14"/><use xlink:href="#15" y="2.171"/><use xlink:href="#16" y="4.342"/><use xlink:href="#17" y="8.684"/><use xlink:href="#18" y="10.855"/><use xlink:href="#19" y="13.026"/><use xlink:href="#23" y="15.197"/><use xlink:href="#24" y="17.368"/><use xlink:href="#25" y="19.539"/><use xlink:href="#26" y="21.71"/><use xlink:href="#27" y="23.881"/><use xlink:href="#28" y="26.052"/><use xlink:href="#10" y="28.223"/><use xlink:href="#11" y="32.565"/><use xlink:href="#30" y="36.907"/><use xlink:href="#31" y="39.078"/><use xlink:href="#32" y="41.249"/><use xlink:href="#15" y="43.42"/><use xlink:href="#33" y="45.591"/><use xlink:href="#34" y="49.933"/></svg><svg x="5360"><use xlink:href="#a"/><use xlink:href="#b" x="-.004" y="49.908"/><use xlink:href="#15"/><use xlink:href="#16" y="2.171"/><use xlink:href="#17" y="6.513"/><use xlink:href="#18" y="8.684"/><use xlink:href="#19" y="10.855"/><use xlink:href="#23" y="13.026"/><use xlink:href="#24" y="15.197"/><use xlink:href="#25" y="17.368"/><use xlink:href="#26" y="19.539"/><use xlink:href="#27" y="21.71"/><use xlink:href="#28" y="23.881"/><use xlink:href="#10" y="26.052"/><use xlink:href="#11" y="30.394"/><use xlink:href="#30" y="34.736"/><use xlink:href="#31" y="36.907"/><use xlink:href="#32" y="39.078"/><use xlink:href="#15" y="41.249"/><use xlink:href="#33" y="43.42"/><use xlink:href="#34" y="47.762"/></svg><svg x="5440"><use xlink:href="#a"/><use xlink:href="#b" x="9.996" y="49.908"/><use xlink:href="#15"/><use xlink:href="#16" y="2.171"/><use xlink:href="#17" y="6.513"/><use xlink:href="#18" y="8.684"/><use xlink:href="#19" y="10.855"/><use xlink:href="#23" y="13.026"/><use xlink:href="#24" y="15.197"/><use xlink:href="#25" y="17.368"/><use xlink:href="#26" y="19.539"/><use xlink:href="#27" y="21.71"/><use xlink:href="#28" y="23.881"/><use xlink:href="#10" y="26.052"/><use xlink:href="#11" y="30.394"/><use xlink:href="#30" y="34.736"/><use xlink:href="#31" y="36.907"/><use xlink:href="#32" y="39.078"/><use xlink:href="#15" y="41.249"/><use xlink:href="#33" y="43.42"/><use xlink:href="#34" y="47.762"/><use xlink:href="#1" y="49.933"/></svg><svg x="5520"><use xlink:href="#a"/><use xlink:href="#b" x="-.004" y="49.908"/><use xlink:href="#16"/><use xlink:href="#17" y="4.342"/><use xlink:href="#18" y="6.513"/><use xlink:href="#19" y="8.684"/><use xlink:href="#23" y="10.855"/><use xlink:href="#24" y="13.026"/><use xlink:href="#25" y="15.197"/><use xlink:href="#26" y="17.368"/><use xlink:href="#27" y="19.539"/><use xlink:href="#28" y="21.71"/><use xlink:href="#10" y="23.881"/><use xlink:href="#11" y="28.223"/><use xlink:href="#30" y="32.565"/><use xlink:href="#31" y="34.736"/><use xlink:href="#32" y="36.907"/><use xlink:href="#15" y="39.078"/><use xlink:href="#33" y="41.249"/><use xlink:href="#34" y="45.591"/><text y="49.432" class="f">bash-3.2$</text><text x="10.02" y="49.432" class="f">exit</text></svg></svg></g></g></svg></svg>